<?xml version="1.0" standalone="no"?>
<!DOCTYPE svg PUBLIC "-//W3C//DTD SVG 20010904//EN"
 "http://www.w3.org/TR/2001/REC-SVG-20010904/DTD/svg10.dtd">
<svg version="1.0" xmlns="http://www.w3.org/2000/svg"
 width="640.000000pt" height="640.000000pt" viewBox="0 0 640.000000 640.000000"
 preserveAspectRatio="xMidYMid meet">
<metadata>
Created by potrace 1.14, written by Peter Selinger 2001-2017
</metadata>
<g transform="translate(0.000000,640.000000) scale(0.100000,-0.100000)"
fill="#000000" stroke="none">
<path d="M2740 5093 c-15 -6 -97 -42 -155 -68 -40 -18 -348 -153 -505 -221
-69 -30 -134 -59 -145 -64 -107 -50 -271 -120 -282 -120 -7 0 -13 -4 -13 -10
0 -5 -7 -10 -15 -10 -8 0 -23 -4 -33 -10 -26 -14 -147 -68 -242 -107 -47 -19
-98 -42 -115 -51 -16 -9 -32 -17 -35 -17 -12 -3 -55 -22 -185 -80 -118 -53
-153 -68 -208 -91 -34 -15 -93 -41 -132 -59 -38 -17 -92 -40 -118 -50 -27 -10
-61 -30 -77 -45 l-30 -28 17 -48 c12 -36 41 -74 117 -153 132 -138 122 -127
266 -281 119 -127 185 -193 240 -240 40 -34 142 -123 154 -135 6 -5 40 -35 76
-65 36 -30 67 -57 70 -60 3 -3 54 -48 115 -100 60 -52 121 -105 135 -117 14
-12 34 -30 46 -40 89 -77 156 -135 199 -173 28 -25 73 -63 100 -85 27 -22 58
-49 70 -60 11 -11 83 -74 160 -139 77 -66 145 -125 150 -130 6 -6 53 -47 105
-91 99 -84 107 -91 161 -140 38 -34 231 -201 268 -231 13 -10 28 -24 35 -30
27 -25 176 -153 231 -199 33 -27 62 -52 65 -55 20 -24 198 -152 236 -171 56
-27 110 -32 144 -13 14 7 79 65 145 129 66 64 210 203 319 308 109 106 222
215 251 242 81 79 469 452 554 533 42 40 135 130 207 200 128 124 458 442 601
579 125 120 124 159 -8 246 -48 31 -695 356 -716 359 -5 0 -25 12 -45 24 -21
13 -41 24 -44 24 -4 0 -84 38 -178 84 -218 107 -586 287 -831 406 -505 246
-589 292 -705 387 -8 7 -67 51 -130 97 -63 47 -119 89 -125 94 -71 57 -135 87
-165 75z"/>
</g>
</svg>
